<svg version="1.1" id="Layer_1" xmlns="http://www.w3.org/2000/svg" xmlns:xlink="http://www.w3.org/1999/xlink" x="0" y="0" viewBox="0 0 180 180" xml:space="preserve"><circle cx="90" cy="90" r="89" fill="#231f20"/><defs><path id="SVGID_1_" d="M24.8 19.8h130.4v140.5H24.8z"/></defs><clipPath id="SVGID_2_"><use xlink:href="#SVGID_1_" overflow="visible"/></clipPath><path d="M40.2 64.7V37.8c7.5 1.7 19.4 5.4 29 13.9C83.8 64.8 84 97.8 84 97.8s-5.1-11.4-14.6-19.3C59.9 70.4 48 66.6 40.2 64.7m70.7-13c9.5-8.5 21.4-12.3 29-13.9v27c-7.8 1.9-19.7 5.8-29.3 13.7C100.9 86.4 96 97.8 96 97.8s.2-33 14.9-46.1m44.3 27.8v45.1s-8.8.1-24.3 5.5c-23 8.1-36.8 30.1-36.8 30.1l4.3-36.7c1.1-9.5 4.7-24.6 18.8-34.2 18.4-12.5 38-9.8 38-9.8m-130.4 0v45.1s8.8.1 24.3 5.5c23 8.1 36.8 30.1 36.8 30.1l-4.3-36.7c-1-9.4-4.6-24.5-18.7-34.1-18.5-12.6-38.1-9.9-38.1-9.9M90 58.8s-2.8-9.9-7.7-16.1c-4.9-6.1-9.1-8.9-9.1-8.9l16.8-14 16.8 14.1s-4.4 2.8-9.1 8.9c-4.8 6.2-7.7 16-7.7 16" clip-path="url(#SVGID_2_)" fill="#fff"/></svg>